<svg width="33" height="40" viewBox="0 0 33 40" fill="none" xmlns="http://www.w3.org/2000/svg">
<path d="M29.658 17.6906C31.6939 14.6658 30.1025 12.6958 28.1094 11.6625C27.5795 11.3878 27.0335 11.8888 27.1789 12.4677L28.4246 17.4276C28.573 18.0184 29.3179 18.196 29.658 17.6906Z" fill="#0B376B"/>
<path d="M2.72756 20.221C2.56826 21.3048 2.93583 22.0618 3.47283 22.5574C3.90955 22.9605 4.45229 22.4762 4.29996 21.9018L3.86873 20.2757C3.69157 19.6077 2.82807 19.5373 2.72756 20.221Z" fill="#0B376B"/>
<path d="M12.1272 36.593L8.34587 25.9267C8.09699 25.2246 8.39305 24.4456 9.04538 24.0861L14.2128 21.238C15.1204 20.7377 16.2516 21.2716 16.4424 22.2903L16.6584 23.444C16.7853 24.1219 16.4403 24.8004 15.8177 25.0972L14.9863 25.4934C14.3156 25.8132 13.9739 26.5707 14.1783 27.2851L16.1091 34.0347C16.3096 34.7357 17.0332 35.0442 17.6933 35.3538C17.792 35.4 17.86 35.4547 17.9048 35.5117C18.0271 35.6674 17.9046 35.8757 17.7689 36.0199C16.5446 37.3215 14.6131 37.577 13.2864 37.5137C12.746 37.4879 12.308 37.103 12.1272 36.593Z" fill="#FFC107"/>
<path d="M14.4112 12.3105L7.81457 13.861C4.85618 14.5563 3.04955 17.55 3.81314 20.4915C4.43675 23.4756 7.37562 25.3774 10.3533 24.7237L16.9761 23.2697C19.5387 22.6901 22.456 22.1402 25.525 23.3534C27.1612 24.0002 29.7235 22.5846 29.3824 20.8587L28.0982 14.3599L26.5957 8.80797C26.139 7.12063 23.2928 6.98568 22.1446 8.30381C19.9086 10.871 17.0185 11.7151 14.4112 12.3105Z" fill="#2B85FF"/>
</svg>
