<svg width="30" height="24" viewBox="0 0 30 24" fill="none" xmlns="http://www.w3.org/2000/svg">
<path d="M0.375 3.24824C0.375 1.79946 1.54947 0.625 2.99824 0.625H17.6255C19.0743 0.625 20.2487 1.79947 20.2487 3.24824V23.2992C20.2487 23.6614 19.9551 23.955 19.5929 23.955H1.03081C0.668617 23.955 0.375 23.6614 0.375 23.2992V3.24824Z" fill="#FFC107"/>
<path d="M18.5205 7.53772C18.5205 6.58329 19.2942 5.80957 20.2487 5.80957H27.1302C28.579 5.80957 29.7535 6.98404 29.7535 8.43281V23.2993C29.7535 23.6615 29.4599 23.9551 29.0977 23.9551H20.2487H19.584C18.9966 23.9551 18.5205 23.479 18.5205 22.8917V7.53772Z" fill="#2B85FF"/>
<rect x="3.83105" y="4.0813" width="6.04852" height="2.59222" rx="0.655811" fill="white"/>
<rect x="3.83105" y="8.40161" width="6.04852" height="2.59222" rx="0.655811" fill="white"/>
<rect x="3.83105" y="12.7222" width="6.04852" height="2.59222" rx="0.655811" fill="white"/>
<rect x="21.9771" y="9.26562" width="4.32037" height="2.59222" rx="0.655811" fill="white"/>
<rect x="11.6079" y="4.0813" width="5.18445" height="2.59222" rx="0.655811" fill="white"/>
<rect x="21.9771" y="13.5862" width="4.32037" height="2.59222" rx="0.655811" fill="white"/>
<rect x="11.6079" y="8.40161" width="5.18445" height="2.59222" rx="0.655811" fill="white"/>
<rect x="21.9771" y="17.9065" width="4.32037" height="2.59222" rx="0.655811" fill="white"/>
<rect x="11.6079" y="12.7222" width="5.18445" height="2.59222" rx="0.655811" fill="white"/>
<path d="M18.5205 7.53601V22.89C18.5205 23.4773 18.9966 23.9534 19.584 23.9534H20.2487V5.80786C19.2942 5.80786 18.5205 6.58158 18.5205 7.53601Z" fill="#0B376B"/>
<path d="M7.2876 18.97C7.2876 18.3826 7.76373 17.9065 8.35107 17.9065H13.1367C13.7241 17.9065 14.2002 18.3826 14.2002 18.97V23.955H7.2876V18.97Z" fill="#2B85FF"/>
</svg>
