<svg width="21" height="20" viewBox="0 0 21 20" fill="none" xmlns="http://www.w3.org/2000/svg">
<path d="M11.1535 13.8004C11.3302 14.0126 11.6455 14.0412 11.8577 13.8645C12.0698 13.6877 12.0985 13.3724 11.9217 13.1603L11.1535 13.8004ZM8.77542 10.1658L8.39131 9.84567C8.23679 10.0311 8.23679 10.3004 8.39131 10.4859L8.77542 10.1658ZM11.9217 7.17127C12.0985 6.95913 12.0698 6.64385 11.8577 6.46706C11.6455 6.29028 11.3302 6.31894 11.1535 6.53108L11.9217 7.17127ZM11.9217 13.1603L9.15953 9.84567L8.39131 10.4859L11.1535 13.8004L11.9217 13.1603ZM9.15953 10.4859L11.9217 7.17127L11.1535 6.53108L8.39131 9.84567L9.15953 10.4859ZM10.5996 16.9995C6.73362 16.9995 3.59961 13.8655 3.59961 9.99951L2.59961 9.99951C2.59961 14.4178 6.18133 17.9995 10.5996 17.9995L10.5996 16.9995ZM3.59961 9.99951C3.59961 6.13352 6.73362 2.99951 10.5996 2.99951L10.5996 1.99951C6.18133 1.99951 2.59961 5.58123 2.59961 9.99951L3.59961 9.99951ZM10.5996 2.99951C14.4656 2.99951 17.5996 6.13352 17.5996 9.99951L18.5996 9.99951C18.5996 5.58123 15.0179 1.99951 10.5996 1.99951L10.5996 2.99951ZM17.5996 9.99951C17.5996 13.8655 14.4656 16.9995 10.5996 16.9995L10.5996 17.9995C15.0179 17.9995 18.5996 14.4178 18.5996 9.99951L17.5996 9.99951Z" fill="black"/>
</svg>
