<svg width="24" height="25" viewBox="0 0 24 25" fill="none" xmlns="http://www.w3.org/2000/svg">
<path d="M15.8891 10.0251C16.2796 9.6346 16.2796 9.00144 15.8891 8.61091C15.4986 8.22039 14.8654 8.22039 14.4749 8.61091L15.8891 10.0251ZM8.11091 14.9749C7.72039 15.3654 7.72039 15.9986 8.11091 16.3891C8.50144 16.7796 9.1346 16.7796 9.52513 16.3891L8.11091 14.9749ZM14.4749 16.3891C14.8654 16.7796 15.4986 16.7796 15.8891 16.3891C16.2796 15.9986 16.2796 15.3654 15.8891 14.9749L14.4749 16.3891ZM9.52513 8.61091C9.1346 8.22039 8.50144 8.22039 8.11091 8.61091C7.72039 9.00144 7.72039 9.6346 8.11091 10.0251L9.52513 8.61091ZM20 12.5C20 16.9183 16.4183 20.5 12 20.5V22.5C17.5228 22.5 22 18.0228 22 12.5H20ZM12 20.5C7.58172 20.5 4 16.9183 4 12.5H2C2 18.0228 6.47715 22.5 12 22.5V20.5ZM4 12.5C4 8.08172 7.58172 4.5 12 4.5V2.5C6.47715 2.5 2 6.97715 2 12.5H4ZM12 4.5C16.4183 4.5 20 8.08172 20 12.5H22C22 6.97715 17.5228 2.5 12 2.5V4.5ZM14.4749 8.61091L11.2929 11.7929L12.7071 13.2071L15.8891 10.0251L14.4749 8.61091ZM11.2929 11.7929L8.11091 14.9749L9.52513 16.3891L12.7071 13.2071L11.2929 11.7929ZM15.8891 14.9749L12.7071 11.7929L11.2929 13.2071L14.4749 16.3891L15.8891 14.9749ZM12.7071 11.7929L9.52513 8.61091L8.11091 10.0251L11.2929 13.2071L12.7071 11.7929Z" fill="white"/>
</svg>
