<svg width="26" height="27" viewBox="0 0 26 27" fill="none" xmlns="http://www.w3.org/2000/svg">
<path d="M16.1633 0.1875H0.4375V24.5625H20.8811V4.64315L16.1633 0.1875Z" fill="#2B85FF"/>
<rect x="10.1875" y="21.3125" width="15.4375" height="5.6875" rx="2.84375" fill="#FFC107"/>
<path fill-rule="evenodd" clip-rule="evenodd" d="M20.8811 21.3125H13.0312C11.4607 21.3125 10.1875 22.5857 10.1875 24.1562C10.1875 24.2942 10.1973 24.4298 10.2163 24.5625H20.8811V21.3125Z" fill="#0B376B"/>
<path fill-rule="evenodd" clip-rule="evenodd" d="M3.17676 5.87489C3.17676 5.3611 3.59327 4.94458 4.10707 4.94458H9.8732C10.387 4.94458 10.8035 5.3611 10.8035 5.87489C10.8035 6.38869 10.387 6.8052 9.8732 6.8052H4.10707C3.59327 6.8052 3.17676 6.38869 3.17676 5.87489Z" fill="white"/>
<path fill-rule="evenodd" clip-rule="evenodd" d="M3.56982 10.3309C3.56982 9.81715 3.98634 9.40063 4.50014 9.40063H17.5001C18.0139 9.40063 18.4305 9.81715 18.4305 10.3309C18.4305 10.8447 18.0139 11.2613 17.5001 11.2613H4.50014C3.98634 11.2613 3.56982 10.8447 3.56982 10.3309Z" fill="white"/>
<path fill-rule="evenodd" clip-rule="evenodd" d="M3.56982 14.3934C3.56982 13.8796 3.98634 13.4631 4.50014 13.4631H14.984C15.4978 13.4631 15.9143 13.8796 15.9143 14.3934C15.9143 14.9072 15.4978 15.3238 14.984 15.3238H4.50014C3.98634 15.3238 3.56982 14.9072 3.56982 14.3934Z" fill="white"/>
</svg>
