<svg width="37" height="31" viewBox="0 0 37 31" fill="none" xmlns="http://www.w3.org/2000/svg">
<path d="M5.36129 14.6734C2.78639 11.9108 3.05342 7.55411 5.94642 5.12659C8.81617 2.71859 13.1131 3.1822 15.4031 6.14692L26.625 20.6748L18.9063 29.2061L5.36129 14.6734Z" fill="#FFC107"/>
<path fill-rule="evenodd" clip-rule="evenodd" d="M5.90576 12.626C5.90576 12.4016 6.08765 12.2197 6.31201 12.2197H17.6877C17.9121 12.2197 18.0939 12.4016 18.0939 12.626C18.0939 12.8503 17.9121 13.0322 17.6877 13.0322H6.31201C6.08765 13.0322 5.90576 12.8503 5.90576 12.626Z" fill="#0B376B"/>
<path d="M22.0809 5.71315C24.437 2.78317 28.7408 2.36134 31.6209 4.77809C34.534 7.22243 34.8349 11.5969 32.2841 14.4172L18.9063 29.2076L10.3751 20.2701L22.0809 5.71315Z" fill="#2B85FF"/>
<path d="M26.3398 8.35379L24.7128 19.4134C24.5932 19.9876 23.7881 20.0269 23.6131 19.4671L22.168 11.5927L20.6757 16.6665C20.5142 17.2158 19.7339 17.2091 19.5818 16.6572L18.5968 13.0827H16.1562L16.8065 12.2702H18.7825C19.0384 12.2702 19.2628 12.4411 19.3308 12.6878L20.1377 15.6162L21.6153 10.5924C21.774 10.0528 22.5361 10.0464 22.7038 10.5833L24.1088 18.3291L25.7104 7.39133C25.8255 6.8387 26.5885 6.77323 26.7961 7.29816L28.7624 12.2702H31.0937C31.3181 12.2702 31.5 12.4521 31.5 12.6764C31.5 12.9008 31.3181 13.0827 31.0937 13.0827H28.5967C28.3633 13.0827 28.1536 12.9401 28.0678 12.7231L26.3398 8.35379Z" fill="white"/>
</svg>
