<?xml version="1.0" encoding="UTF-8"?><svg id="Layer_1" xmlns="http://www.w3.org/2000/svg" viewBox="0 0 841.89 595.28"><defs><style>.cls-1{fill:#c02465;}.cls-1,.cls-2{fill-rule:evenodd;}.cls-1,.cls-2,.cls-3{stroke-width:0px;}.cls-2,.cls-3{fill:#2b2b2b;}</style></defs><path class="cls-3" d="m352.71,370.16c-2.36-1.73-3.68-4.08-3.96-7.06h4.29c.2,1.83,1.06,3.31,2.59,4.44,1.53,1.13,3.58,1.7,6.16,1.7,2.26,0,4.04-.54,5.33-1.61,1.29-1.07,1.94-2.4,1.94-3.99,0-1.11-.36-2.03-1.07-2.74-.71-.71-1.62-1.28-2.71-1.7-1.09-.42-2.57-.86-4.44-1.34-2.42-.63-4.39-1.27-5.9-1.91-1.51-.63-2.79-1.58-3.84-2.83-1.05-1.25-1.58-2.93-1.58-5.03,0-1.59.48-3.06,1.43-4.41.95-1.35,2.3-2.42,4.05-3.22,1.75-.79,3.73-1.19,5.96-1.19,3.49,0,6.31.88,8.46,2.65,2.14,1.77,3.3,4.2,3.45,7.3h-4.17c-.12-1.91-.86-3.44-2.23-4.62-1.37-1.17-3.25-1.76-5.63-1.76-2.1,0-3.81.5-5.12,1.49-1.31.99-1.97,2.22-1.97,3.69,0,1.27.39,2.31,1.16,3.13.77.81,1.74,1.45,2.89,1.91,1.15.46,2.7.96,4.65,1.52,2.34.63,4.21,1.25,5.6,1.85,1.39.6,2.58,1.47,3.57,2.62.99,1.15,1.51,2.68,1.55,4.59,0,1.75-.48,3.31-1.43,4.68-.95,1.37-2.28,2.45-3.99,3.25-1.71.79-3.67,1.19-5.9,1.19-3.73,0-6.78-.86-9.14-2.59Z"/><path class="cls-3" d="m429.07,342.76c2.4,2.4,3.6,5.89,3.6,10.45v19.06h-4.11v-18.58c0-3.53-.85-6.23-2.56-8.1-1.71-1.87-4.03-2.8-6.97-2.8s-5.5,1.01-7.33,3.04c-1.83,2.03-2.74,4.96-2.74,8.82v17.63h-4.11v-18.58c0-3.53-.85-6.23-2.56-8.1-1.71-1.87-4.05-2.8-7.03-2.8s-5.5,1.01-7.33,3.04c-1.83,2.03-2.74,4.96-2.74,8.82v17.63h-4.17v-32.52h4.17v5.6c1.03-2.03,2.5-3.56,4.41-4.62,1.91-1.05,4.03-1.58,6.37-1.58,2.82,0,5.29.68,7.42,2.02,2.12,1.35,3.66,3.34,4.62,5.96.87-2.58,2.37-4.56,4.5-5.93,2.12-1.37,4.54-2.05,7.24-2.05,3.81,0,6.92,1.2,9.32,3.6Z"/><path class="cls-3" d="m441.99,347.17c1.33-2.52,3.18-4.47,5.54-5.84,2.36-1.37,5.03-2.05,8.01-2.05s5.77.71,8.01,2.14c2.24,1.43,3.86,3.26,4.85,5.48v-7.15h4.17v32.52h-4.17v-7.21c-1.03,2.22-2.67,4.06-4.91,5.51-2.24,1.45-4.91,2.17-8.01,2.17-2.94,0-5.59-.69-7.95-2.08-2.36-1.39-4.21-3.35-5.54-5.9-1.33-2.54-2-5.48-2-8.82s.66-6.26,2-8.78Zm24.81,1.94c-1.07-1.98-2.53-3.51-4.38-4.59-1.85-1.07-3.88-1.61-6.11-1.61s-4.37.52-6.19,1.55c-1.83,1.03-3.27,2.53-4.32,4.5-1.05,1.97-1.58,4.3-1.58,7s.53,4.99,1.58,7c1.05,2,2.49,3.53,4.32,4.59,1.83,1.05,3.89,1.58,6.19,1.58s4.26-.54,6.11-1.61c1.85-1.07,3.31-2.6,4.38-4.59,1.07-1.98,1.61-4.29,1.61-6.91s-.54-4.92-1.61-6.91Z"/><path class="cls-3" d="m490.47,340.82c1.89-1.11,4.2-1.67,6.94-1.67v4.35h-1.13c-3.02,0-5.44.81-7.27,2.44-1.83,1.63-2.74,4.35-2.74,8.16v18.17h-4.17v-32.52h4.17v5.78c.91-2.03,2.31-3.59,4.2-4.71Z"/><path class="cls-3" d="m509.09,343.27v20.19c0,1.99.38,3.36,1.13,4.11s2.08,1.13,3.99,1.13h3.81v3.57h-4.47c-2.94,0-5.12-.69-6.55-2.05-1.43-1.37-2.14-3.62-2.14-6.76v-20.19h-4.53v-3.51h4.53v-8.16h4.23v8.16h8.93v3.51h-8.93Z"/><path class="cls-3" d="m553.99,343.27h-7.56v29.01h-4.17v-29.01h-4.53v-3.51h4.53v-2.26c0-3.53.9-6.13,2.71-7.8,1.81-1.67,4.74-2.5,8.79-2.5v3.57c-2.7,0-4.6.52-5.69,1.55-1.09,1.03-1.64,2.76-1.64,5.18v2.26h7.56v3.51Z"/><path class="cls-3" d="m564.72,328.2v44.08h-4.17v-44.08h4.17Z"/><path class="cls-3" d="m580.17,370.69c-2.44-1.37-4.37-3.32-5.78-5.84-1.41-2.52-2.11-5.47-2.11-8.84s.71-6.32,2.14-8.84c1.43-2.52,3.37-4.47,5.84-5.84,2.46-1.37,5.22-2.05,8.28-2.05s5.83.68,8.31,2.05c2.48,1.37,4.43,3.32,5.84,5.84,1.41,2.52,2.11,5.47,2.11,8.84s-.71,6.27-2.14,8.82c-1.43,2.54-3.39,4.5-5.9,5.87-2.5,1.37-5.28,2.05-8.34,2.05s-5.81-.69-8.25-2.05Zm14.21-3.04c1.83-.97,3.31-2.44,4.44-4.41,1.13-1.97,1.7-4.38,1.7-7.24s-.56-5.27-1.67-7.24c-1.11-1.97-2.58-3.43-4.41-4.41-1.83-.97-3.81-1.46-5.96-1.46s-4.13.49-5.96,1.46c-1.83.97-3.29,2.44-4.38,4.41-1.09,1.97-1.64,4.38-1.64,7.24s.54,5.27,1.64,7.24c1.09,1.96,2.54,3.43,4.35,4.41,1.81.97,3.78,1.46,5.93,1.46s4.13-.49,5.96-1.46Z"/><path class="cls-3" d="m655.31,339.75l-10.18,32.52h-4.17l-8.99-27.28-8.99,27.28h-4.23l-10.18-32.52h4.23l8.1,28.29,9.11-28.29h4.17l8.99,28.35,8.04-28.35h4.11Z"/><path class="cls-2" d="m214.45,246.34l18.8,18.8c5.54,5.55,12.84,8.32,20.14,8.32s14.59-2.77,20.14-8.32l18.8-18.8-11.42-11.42-18.8,18.8c-2.39,2.39-5.55,3.59-8.72,3.59-3.17,0-6.33-1.19-8.72-3.59l-18.8-18.8-11.42,11.42Z"/><path class="cls-1" d="m299.32,255.31l-18.8,18.8c-5.55,5.55-8.32,12.85-8.32,20.14s2.77,14.59,8.32,20.14l18.8,18.8,11.42-11.42-18.8-18.8c-2.39-2.39-3.59-5.55-3.59-8.72,0-3.17,1.19-6.33,3.59-8.72l18.8-18.8-11.42-11.42Z"/><path class="cls-1" d="m292.34,344.59l-18.8-18.8c-5.54-5.55-12.84-8.32-20.14-8.32-7.29,0-14.59,2.77-20.14,8.32l-18.8,18.8,11.42,11.42,18.8-18.8c2.39-2.39,5.55-3.59,8.72-3.59s6.33,1.2,8.72,3.59l18.8,18.8,11.42-11.42Z"/><path class="cls-1" d="m205.2,333.19l18.8-18.8c5.55-5.55,8.32-12.84,8.32-20.14s-2.77-14.59-8.32-20.14l-18.8-18.8-11.42,11.42,18.8,18.8c2.39,2.39,3.59,5.55,3.59,8.72,0,3.17-1.19,6.33-3.59,8.72l-18.8,18.8,11.42,11.42Z"/><path class="cls-1" d="m187.94,307.35c7.46,0,13.51-6.05,13.51-13.51s-6.05-13.51-13.51-13.51-13.51,6.05-13.51,13.51,6.05,13.51,13.51,13.51"/><path class="cls-2" d="m239.89,228.39c0,7.46,6.05,13.51,13.51,13.51s13.51-6.05,13.51-13.51-6.05-13.51-13.51-13.51-13.51,6.05-13.51,13.51"/><path class="cls-1" d="m318.85,280.34c-7.46,0-13.51,6.05-13.51,13.51s6.05,13.51,13.51,13.51,13.51-6.05,13.51-13.51-6.05-13.51-13.51-13.51"/><path class="cls-1" d="m266.9,359.3c0-7.46-6.05-13.51-13.51-13.51s-13.51,6.05-13.51,13.51,6.05,13.51,13.51,13.51,13.51-6.05,13.51-13.51"/><path class="cls-3" d="m398,298.51c-1.11,1.48-2,2.87-3.09,4.08-6.86,7.7-15.48,10.81-25.54,8.85-10.11-1.97-16.96-8.01-19.85-18.08-.52-1.83-.73-3.81-.73-5.72-.05-23.54-.04-47.08-.03-70.63,0-.63.1-1.26.17-2.08h16.83c0,1.13,0,2.2,0,3.28,0,22.44-.01,44.88.01,67.32,0,5.17,2.75,8.88,7.83,10.86,4.38,1.7,9.29.64,12.43-2.7,2.64-2.8,3.29-6.25,3.29-9.94-.01-21.79,0-43.59,0-65.38,0-1.08,0-2.17,0-3.44h16.76c0,1.11,0,2.18,0,3.25,0,21.89.01,43.77,0,65.66,0,5.28,1.76,9.59,6.66,12.08,7.53,3.82,16.48-1.61,16.5-10.05.06-22.53.02-45.06.02-67.59,0-1.07,0-2.15,0-3.38h17.05c.06.94.18,1.82.18,2.7,0,23.27.05,46.53-.02,69.8-.03,10.66-6.8,19.81-16.86,23.15-10.46,3.48-22.51.29-28.54-7.58-1.05-1.37-1.96-2.85-3.05-4.44Z"/><path class="cls-3" d="m522.26,310.14h-15.6c0-1.21,0-2.28,0-3.35-.08-10.11.07-20.23-.33-30.33-.26-6.53-2.89-12.2-8.83-15.64-8.9-5.15-20.72-1.48-25.55,7.79-4.86,9.32-.93,21.01,8.66,25.48,5.78,2.7,11.67,3,17.59.34.73-.33,1.51-.55,2.6-.94,0,4.92.08,9.57-.09,14.22-.02.64-1.15,1.52-1.94,1.8-17.25,6.23-41.73-3.14-44.12-27.72-2.62-26.9,23-46.03,47.83-35.78,10.74,4.43,16.61,13.15,18.65,24.28.99,5.37.98,10.96,1.1,16.46.17,7.7.04,15.41.04,23.39Z"/><path class="cls-3" d="m620.73,289.75c-2.12-2.4-4.05-4.58-6.2-7,8.09-6.29,15.96-12.4,23.81-18.51-5.48-7.57-16.86-7.97-24.83-1.1-8.71,7.51-9.24,20.57-1.21,28.7,6.72,6.79,20.06,9.44,30.21-4,3.93,2.21,7.9,4.45,11.84,6.67-4.86,12.41-21.41,19.53-37.32,16.19-15.33-3.21-25.66-17.17-25.01-33.79.66-16.82,12.76-30.45,28.95-32.61,15.83-2.11,30.15,5.91,34.33,19.42-11.38,8.57-22.82,17.18-34.58,26.04Z"/><path class="cls-3" d="m527.15,245.43h15.53c1.03,5.66,2.06,11.32,3.09,16.99,1.59,8.77,3.19,17.53,4.76,26.3.9,5.01,4.21,8.86,7.72,8.87,3.3.01,6.52-3.71,7.46-8.78,2.49-13.46,4.94-26.92,7.41-40.38.18-.98.43-1.96.66-3h15.48c-1.23,6.58-2.41,12.98-3.61,19.37-1.76,9.39-3.47,18.79-5.31,28.16-2.07,10.52-11.48,18.4-21.84,18.45-10.66.05-20.37-7.84-22.45-18.45-2.92-14.87-5.71-29.76-8.54-44.65-.17-.89-.23-1.81-.36-2.87Z"/></svg>