<svg width="16" height="16" viewBox="0 0 16 16" fill="none" xmlns="http://www.w3.org/2000/svg">
<g clip-path="url(#clip0_2190_29774)">
<path d="M8.33333 9.41618C8.93164 9.41618 9.41667 8.93115 9.41667 8.33285C9.41667 7.73454 8.93164 7.24951 8.33333 7.24951C7.73502 7.24951 7.25 7.73454 7.25 8.33285C7.25 8.93115 7.73502 9.41618 8.33333 9.41618Z" fill="black"/>
<path d="M12.5833 9.41618C13.1816 9.41618 13.6667 8.93115 13.6667 8.33285C13.6667 7.73454 13.1816 7.24951 12.5833 7.24951C11.985 7.24951 11.5 7.73454 11.5 8.33285C11.5 8.93115 11.985 9.41618 12.5833 9.41618Z" fill="black"/>
<path d="M4.08333 9.41618C4.68164 9.41618 5.16667 8.93115 5.16667 8.33285C5.16667 7.73454 4.68164 7.24951 4.08333 7.24951C3.48502 7.24951 3 7.73454 3 8.33285C3 8.93115 3.48502 9.41618 4.08333 9.41618Z" fill="black"/>
</g>
<defs>
<clipPath id="clip0_2190_29774">
<rect width="16" height="16" fill="white" transform="translate(0 -0.000488281)"/>
</clipPath>
</defs>
</svg>
