<svg width="33" height="27" viewBox="0 0 33 27" fill="none" xmlns="http://www.w3.org/2000/svg">
<circle cx="22.5275" cy="9.7223" r="9.7223" fill="#2B85FF"/>
<circle cx="10.2848" cy="16.9237" r="9.7223" fill="#FFC107"/>
<path fill-rule="evenodd" clip-rule="evenodd" d="M13.1071 7.72362C15.2705 8.22879 17.3656 9.73314 18.7361 12.0081C20.1061 14.2821 20.457 16.8362 19.8934 18.9843C17.73 18.4792 15.6349 16.9748 14.2644 14.6999C12.8944 12.4259 12.5435 9.87173 13.1071 7.72362Z" fill="#0B376B"/>
<path d="M12.7316 18.4324C12.7316 18.9653 12.5574 19.4242 12.2091 19.8091C11.8608 20.1939 11.4083 20.4317 10.8517 20.5222V21.4365C10.8517 21.4853 10.8359 21.5253 10.8044 21.5567C10.7729 21.588 10.7326 21.6037 10.6836 21.6037H9.9747C9.92919 21.6037 9.88981 21.5871 9.85655 21.554C9.82329 21.521 9.80666 21.4818 9.80666 21.4365V20.5222C9.57561 20.4909 9.35243 20.4369 9.13713 20.3603C8.92183 20.2836 8.74416 20.2061 8.60413 20.1278C8.46409 20.0494 8.33456 19.9658 8.21554 19.877C8.09651 19.7882 8.01511 19.7229 7.97135 19.6811C7.92759 19.6393 7.89696 19.6079 7.87946 19.587C7.81994 19.5139 7.81644 19.4425 7.86895 19.3728L8.40983 18.6675C8.43434 18.6327 8.4746 18.6118 8.53061 18.6048C8.58312 18.5979 8.62513 18.6135 8.65664 18.6519L8.66714 18.6623C9.06274 19.0071 9.48809 19.2248 9.9432 19.3154C10.0727 19.3432 10.2023 19.3572 10.3318 19.3572C10.6154 19.3572 10.8648 19.2823 11.0801 19.1325C11.2954 18.9827 11.403 18.7703 11.403 18.4951C11.403 18.3976 11.3768 18.3053 11.3243 18.2182C11.2718 18.1312 11.2131 18.058 11.1484 17.9988C11.0836 17.9396 10.9812 17.8743 10.8412 17.8029C10.7011 17.7315 10.5856 17.6758 10.4946 17.6357C10.4036 17.5956 10.2635 17.539 10.0745 17.4659C9.93794 17.4102 9.83029 17.3666 9.75152 17.3353C9.67276 17.3039 9.56511 17.2578 9.42857 17.1968C9.29204 17.1359 9.18264 17.0819 9.10037 17.0349C9.0181 16.9879 8.9192 16.926 8.80368 16.8494C8.68815 16.7728 8.5945 16.6988 8.52273 16.6274C8.45097 16.556 8.37482 16.4706 8.2943 16.3714C8.21379 16.2721 8.15165 16.1711 8.10789 16.0684C8.06413 15.9656 8.02737 15.8498 7.99761 15.7209C7.96785 15.5921 7.95297 15.4562 7.95297 15.3134C7.95297 14.8328 8.12451 14.4113 8.4676 14.0491C8.81068 13.6869 9.25703 13.4535 9.80666 13.349V12.4086C9.80666 12.3634 9.82329 12.3242 9.85655 12.2911C9.88981 12.258 9.92919 12.2415 9.9747 12.2415H10.6836C10.7326 12.2415 10.7729 12.2571 10.8044 12.2885C10.8359 12.3198 10.8517 12.3599 10.8517 12.4086V13.3281C11.0512 13.349 11.2446 13.3891 11.4319 13.4483C11.6192 13.5075 11.7715 13.5659 11.8888 13.6233C12.0061 13.6808 12.1172 13.7461 12.2222 13.8192C12.3273 13.8924 12.3955 13.9429 12.427 13.9707C12.4585 13.9986 12.4848 14.023 12.5058 14.0439C12.5653 14.1066 12.5741 14.1728 12.5321 14.2424L12.1067 15.0052C12.0787 15.0574 12.0384 15.0853 11.9859 15.0888C11.9369 15.0992 11.8897 15.087 11.8441 15.0522C11.8336 15.0418 11.8083 15.0209 11.768 14.9895C11.7277 14.9582 11.6595 14.912 11.5632 14.8511C11.4669 14.7901 11.3645 14.7344 11.256 14.6839C11.1475 14.6334 11.0171 14.5881 10.8648 14.5481C10.7125 14.508 10.5628 14.488 10.4158 14.488C10.0832 14.488 9.81191 14.5629 9.60186 14.7126C9.39181 14.8624 9.28679 15.0557 9.28679 15.2925C9.28679 15.3831 9.30167 15.4667 9.33143 15.5433C9.36118 15.6199 9.41282 15.6922 9.48634 15.7601C9.55985 15.828 9.629 15.8855 9.69376 15.9325C9.75853 15.9796 9.85655 16.0335 9.98783 16.0945C10.1191 16.1554 10.225 16.2025 10.3055 16.2355C10.3861 16.2686 10.5086 16.3165 10.6731 16.3792C10.8587 16.4489 11.0004 16.5037 11.0985 16.5438C11.1965 16.5838 11.3295 16.6448 11.4976 16.7266C11.6656 16.8085 11.7978 16.8825 11.894 16.9487C11.9903 17.0149 12.0988 17.1019 12.2196 17.2099C12.3404 17.3179 12.4332 17.4285 12.4979 17.5417C12.5627 17.6549 12.6178 17.7881 12.6633 17.9413C12.7089 18.0946 12.7316 18.2583 12.7316 18.4324Z" fill="white"/>
<path d="M24.9748 11.231C24.9748 11.7639 24.8006 12.2228 24.4523 12.6077C24.1039 12.9925 23.6515 13.2302 23.0948 13.3208V14.2351C23.0948 14.2838 23.0791 14.3239 23.0476 14.3552C23.0161 14.3866 22.9758 14.4023 22.9268 14.4023H22.2179C22.1724 14.4023 22.133 14.3857 22.0997 14.3526C22.0665 14.3195 22.0498 14.2804 22.0498 14.2351V13.3208C21.8188 13.2894 21.5956 13.2355 21.3803 13.1588C21.165 13.0822 20.9873 13.0047 20.8473 12.9263C20.7073 12.848 20.5777 12.7644 20.4587 12.6756C20.3397 12.5868 20.2583 12.5215 20.2145 12.4797C20.1708 12.4379 20.1401 12.4065 20.1226 12.3856C20.0631 12.3125 20.0596 12.2411 20.1121 12.1714L20.653 11.4661C20.6775 11.4313 20.7178 11.4104 20.7738 11.4034C20.8263 11.3965 20.8683 11.4121 20.8998 11.4504L20.9103 11.4609C21.3059 11.8057 21.7313 12.0234 22.1864 12.1139C22.3159 12.1418 22.4454 12.1557 22.575 12.1557C22.8585 12.1557 23.108 12.0809 23.3233 11.9311C23.5386 11.7813 23.6462 11.5689 23.6462 11.2937C23.6462 11.1962 23.6199 11.1039 23.5674 11.0168C23.5149 10.9297 23.4563 10.8566 23.3915 10.7974C23.3268 10.7382 23.2244 10.6729 23.0843 10.6015C22.9443 10.5301 22.8288 10.4743 22.7377 10.4343C22.6467 10.3942 22.5067 10.3376 22.3176 10.2645C22.1811 10.2088 22.0735 10.1652 21.9947 10.1339C21.9159 10.1025 21.8083 10.0564 21.6717 9.99543C21.5352 9.93448 21.4258 9.88049 21.3435 9.83347C21.2613 9.78645 21.1624 9.72463 21.0468 9.648C20.9313 9.57138 20.8377 9.49737 20.7659 9.42597C20.6941 9.35456 20.618 9.26923 20.5375 9.16997C20.4569 9.0707 20.3948 8.9697 20.351 8.86695C20.3073 8.7642 20.2705 8.64839 20.2408 8.51952C20.211 8.39065 20.1961 8.25482 20.1961 8.11202C20.1961 7.63137 20.3677 7.20993 20.7108 6.8477C21.0538 6.48547 21.5002 6.25211 22.0498 6.14762V5.20722C22.0498 5.16194 22.0665 5.12276 22.0997 5.08967C22.133 5.05658 22.1724 5.04004 22.2179 5.04004H22.9268C22.9758 5.04004 23.0161 5.05571 23.0476 5.08706C23.0791 5.11841 23.0948 5.15846 23.0948 5.20722V6.12672C23.2944 6.14762 23.4878 6.18768 23.6751 6.24689C23.8624 6.3061 24.0147 6.36444 24.1319 6.42191C24.2492 6.47938 24.3604 6.54468 24.4654 6.61782C24.5704 6.69097 24.6387 6.74147 24.6702 6.76933C24.7017 6.7972 24.728 6.82158 24.749 6.84247C24.8085 6.90517 24.8172 6.97134 24.7752 7.041L24.3499 7.80377C24.3219 7.85602 24.2816 7.88388 24.2291 7.88736C24.1801 7.89781 24.1328 7.88562 24.0873 7.85079C24.0768 7.84034 24.0514 7.81945 24.0112 7.7881C23.9709 7.75675 23.9026 7.7106 23.8064 7.64965C23.7101 7.5887 23.6077 7.53297 23.4992 7.48247C23.3906 7.43197 23.2602 7.38669 23.108 7.34663C22.9557 7.30658 22.806 7.28655 22.659 7.28655C22.3264 7.28655 22.0551 7.36144 21.845 7.5112C21.635 7.66097 21.53 7.85428 21.53 8.09112C21.53 8.18168 21.5448 8.26527 21.5746 8.34189C21.6043 8.41852 21.656 8.49079 21.7295 8.55871C21.803 8.62662 21.8722 8.68409 21.9369 8.73111C22.0017 8.77813 22.0997 8.83212 22.231 8.89307C22.3623 8.95402 22.4682 9.00104 22.5487 9.03413C22.6292 9.06722 22.7517 9.11511 22.9163 9.1778C23.1018 9.24746 23.2436 9.30232 23.3416 9.34237C23.4397 9.38243 23.5727 9.44338 23.7407 9.52523C23.9088 9.60708 24.0409 9.68109 24.1372 9.74727C24.2335 9.81345 24.342 9.90052 24.4628 10.0085C24.5836 10.1165 24.6763 10.227 24.7411 10.3402C24.8059 10.4534 24.861 10.5867 24.9065 10.7399C24.952 10.8932 24.9748 11.0569 24.9748 11.231Z" fill="white"/>
</svg>
