<svg width="52" height="52" viewBox="0 0 52 52" fill="none" xmlns="http://www.w3.org/2000/svg">
<path d="M15.8889 10.651C15.8889 9.70467 16.6561 8.9375 17.6024 8.9375H35.2742C36.2206 8.9375 36.9877 9.70467 36.9877 10.651V20.9841C36.9877 21.9304 36.2206 22.6976 35.2742 22.6976H17.6024C16.6561 22.6976 15.8889 21.9304 15.8889 20.9841V10.651Z" fill="#FBE3A2"/>
<path d="M13.8125 13.2031C13.8125 12.1935 14.5814 11.375 15.5298 11.375H37.2827C38.2311 11.375 39 12.1935 39 13.2031V26.6094C39 27.619 38.2311 28.4375 37.2827 28.4375H15.5298C14.5814 28.4375 13.8125 27.619 13.8125 26.6094V13.2031Z" fill="#FFC107"/>
<path d="M11.3027 26.4342C11.3027 25.4879 12.0699 24.7207 13.0163 24.7207H39.2902C40.2365 24.7207 41.0037 25.4879 41.0037 26.4342V37.2865C41.0037 38.2328 40.2365 39 39.2902 39H13.0163C12.0699 39 11.3027 38.2328 11.3027 37.2865V26.4342Z" fill="#2B85FF"/>
<path d="M19.8706 29.3547C19.8706 28.5661 20.5099 27.9268 21.2985 27.9268H31.0085C31.7971 27.9268 32.4364 28.5661 32.4364 29.3547C32.4364 30.1433 31.7971 30.7826 31.0085 30.7826H21.2985C20.5099 30.7826 19.8706 30.1433 19.8706 29.3547Z" fill="#0B376B"/>
<path fill-rule="evenodd" clip-rule="evenodd" d="M17.0142 16.3163C17.0142 16.0008 17.2699 15.7451 17.5853 15.7451H34.4349C34.7504 15.7451 35.0061 16.0008 35.0061 16.3163C35.0061 16.6317 34.7504 16.8875 34.4349 16.8875H17.5853C17.2699 16.8875 17.0142 16.6317 17.0142 16.3163Z" fill="white"/>
<path fill-rule="evenodd" clip-rule="evenodd" d="M17.0142 20.0302C17.0142 19.7147 17.2699 19.459 17.5853 19.459H34.4349C34.7504 19.459 35.0061 19.7147 35.0061 20.0302C35.0061 20.3456 34.7504 20.6013 34.4349 20.6013H17.5853C17.2699 20.6013 17.0142 20.3456 17.0142 20.0302Z" fill="white"/>
</svg>
