<svg width="18" height="18" viewBox="0 0 18 18" fill="none" xmlns="http://www.w3.org/2000/svg">
<path d="M16.9419 16.0595L13.0302 12.1485C14.1639 10.7874 14.7293 9.04148 14.6086 7.27409C14.488 5.5067 13.6906 3.85387 12.3823 2.65943C11.074 1.46499 9.35566 0.820904 7.58462 0.861154C5.81357 0.901404 4.12622 1.62289 2.87358 2.87554C1.62094 4.12818 0.899451 5.81553 0.859201 7.58657C0.818951 9.35762 1.46304 11.076 2.65748 12.3843C3.85192 13.6925 5.50475 14.4899 7.27214 14.6106C9.03953 14.7312 10.7854 14.1659 12.1466 13.0321L16.0575 16.9438C16.1156 17.0019 16.1845 17.048 16.2604 17.0794C16.3363 17.1108 16.4176 17.127 16.4997 17.127C16.5818 17.127 16.6631 17.1108 16.739 17.0794C16.8149 17.048 16.8838 17.0019 16.9419 16.9438C16.9999 16.8858 17.046 16.8168 17.0774 16.741C17.1089 16.6651 17.125 16.5838 17.125 16.5016C17.125 16.4195 17.1089 16.3382 17.0774 16.2623C17.046 16.1865 16.9999 16.1175 16.9419 16.0595ZM2.12469 7.75164C2.12469 6.63912 2.45459 5.55159 3.07267 4.62656C3.69076 3.70153 4.56926 2.98056 5.5971 2.55482C6.62493 2.12908 7.75593 2.01768 8.84707 2.23473C9.93822 2.45177 10.9405 2.9875 11.7272 3.77417C12.5138 4.56084 13.0496 5.56312 13.2666 6.65426C13.4837 7.7454 13.3723 8.8764 12.9465 9.90424C12.5208 10.9321 11.7998 11.8106 10.8748 12.4287C9.94975 13.0467 8.86221 13.3766 7.74969 13.3766C6.25836 13.375 4.82858 12.7818 3.77404 11.7273C2.71951 10.6728 2.12634 9.24298 2.12469 7.75164Z" fill="#020608"/>
</svg>
