<svg width="35" height="36" viewBox="0 0 35 36" fill="none" xmlns="http://www.w3.org/2000/svg">
<rect x="0.097168" y="4.89709" width="15.6763" height="10.3133" rx="1.76688" fill="#2B85FF"/>
<path fill-rule="evenodd" clip-rule="evenodd" d="M7.10986 12.1143C7.10986 11.9548 7.23915 11.8256 7.39864 11.8256H8.92501C9.08449 11.8256 9.21378 11.9548 9.21378 12.1143C9.21378 12.2738 9.08449 12.4031 8.92501 12.4031H7.39864C7.23915 12.4031 7.10986 12.2738 7.10986 12.1143Z" fill="#2B85FF"/>
<path fill-rule="evenodd" clip-rule="evenodd" d="M9.70898 12.1143C9.70898 11.9548 9.83827 11.8256 9.99776 11.8256H11.5241C11.6836 11.8256 11.8129 11.9548 11.8129 12.1143C11.8129 12.2738 11.6836 12.4031 11.5241 12.4031H9.99776C9.83827 12.4031 9.70898 12.2738 9.70898 12.1143Z" fill="#2B85FF"/>
<path fill-rule="evenodd" clip-rule="evenodd" d="M12.3081 12.1143C12.3081 11.9548 12.4374 11.8256 12.5969 11.8256H14.1233C14.2827 11.8256 14.412 11.9548 14.412 12.1143C14.412 12.2738 14.2827 12.4031 14.1233 12.4031H12.5969C12.4374 12.4031 12.3081 12.2738 12.3081 12.1143Z" fill="#2B85FF"/>
<rect x="0.097168" y="6.91101" width="15.6649" height="1.79027" fill="#0B376B"/>
<circle cx="3.0259" cy="12.1046" r="1.44387" fill="#FBE3A2"/>
<circle cx="4.84084" cy="12.1046" r="1.44387" fill="white"/>
<path d="M32.6301 7.67255C33.5212 6.34862 32.8246 5.48636 31.9523 5.03413C31.7203 4.91389 31.4813 5.13315 31.545 5.38653L32.0902 7.55744C32.1552 7.81605 32.4812 7.89375 32.6301 7.67255Z" fill="#0B376B"/>
<path d="M20.8431 8.77949C20.7733 9.25386 20.9342 9.58518 21.1693 9.8021C21.3604 9.97851 21.598 9.76655 21.5313 9.51513L21.3425 8.80341C21.265 8.51102 20.887 8.48021 20.8431 8.77949Z" fill="#0B376B"/>
<path d="M24.957 15.9466L23.302 11.278C23.193 10.9708 23.3226 10.6298 23.6081 10.4724L25.8699 9.22584C26.2671 9.00689 26.7622 9.24057 26.8457 9.68642L26.9403 10.1914C26.9959 10.4881 26.8448 10.7851 26.5723 10.915L26.2084 11.0884C25.9148 11.2284 25.7653 11.5599 25.8548 11.8726L26.6999 14.8268C26.7876 15.1337 27.1043 15.2687 27.3933 15.4042C27.4364 15.4244 27.4662 15.4484 27.4858 15.4733C27.5393 15.5415 27.4857 15.6326 27.4264 15.6957C26.8905 16.2654 26.0451 16.3773 25.4644 16.3496C25.2279 16.3383 25.0361 16.1698 24.957 15.9466Z" fill="#FFC107"/>
<path d="M25.9566 5.31774L23.0693 5.99636C21.7745 6.3007 20.9837 7.611 21.3179 8.89847C21.5909 10.2046 22.8772 11.037 24.1805 10.7508L27.0792 10.1145C28.2009 9.86078 29.4778 9.62008 30.821 10.1511C31.5371 10.4342 32.6586 9.8146 32.5094 9.05916L31.9473 6.21473L31.2896 3.78469C31.0898 3.04616 29.844 2.98709 29.3415 3.56402C28.3628 4.68764 27.0978 5.05709 25.9566 5.31774Z" fill="#2B85FF"/>
<rect x="0.097168" y="20.3298" width="15.4073" height="15.4073" rx="3.25261" fill="#E2E2E2"/>
<ellipse cx="3.94898" cy="28.0328" rx="1.28395" ry="1.28395" fill="#959595"/>
<circle cx="7.80152" cy="28.0328" r="1.28395" fill="#959595"/>
<circle cx="11.6526" cy="28.0328" r="1.28395" fill="#959595"/>
<rect x="20.999" y="22.2706" width="13.4814" height="12.8395" rx="1.62631" fill="#2B85FF"/>
<path d="M20.999 23.8969C20.999 22.9988 21.7271 22.2706 22.6253 22.2706H32.8541C33.7523 22.2706 34.4804 22.9988 34.4804 23.8969V26.7644H20.999V23.8969Z" fill="#FFC107"/>
<path d="M22.9243 22.2706H25.4922V22.9126C25.4922 23.6217 24.9174 24.1965 24.2083 24.1965C23.4992 24.1965 22.9243 23.6217 22.9243 22.9126V22.2706Z" fill="#0B376B"/>
<path d="M29.9873 22.2706H32.5552V22.9126C32.5552 23.6217 31.9804 24.1965 31.2712 24.1965C30.5621 24.1965 29.9873 23.6217 29.9873 22.9126V22.2706Z" fill="#0B376B"/>
<path d="M22.9243 21.6296C22.9243 20.9205 23.4992 20.3457 24.2083 20.3457C24.9174 20.3457 25.4922 20.9205 25.4922 21.6296V22.2716H22.9243V21.6296Z" fill="#2B85FF"/>
<path d="M29.9873 21.6296C29.9873 20.9205 30.5621 20.3457 31.2712 20.3457C31.9804 20.3457 32.5552 20.9205 32.5552 21.6296V22.2716H29.9873V21.6296Z" fill="#2B85FF"/>
</svg>
